<?xml version="1.0" encoding="utf-8"?>
<!-- Generator: Adobe Illustrator 27.0.0, SVG Export Plug-In . SVG Version: 6.00 Build 0)  -->
<svg version="1.1" id="Capa_1" xmlns="http://www.w3.org/2000/svg" xmlns:xlink="http://www.w3.org/1999/xlink" x="0px" y="0px"
	 viewBox="0 0 24 24" style="enable-background:new 0 0 24 24;" xml:space="preserve">
<style type="text/css">
	.st0{fill:#F4F4F4;}
	.st1{fill:#FFCB00;}
</style>
<g>
	<path class="st0" d="M19.3,24H4.7c-0.6,0-1-0.5-1-1V1c0-0.6,0.4-1,1-1h14.6c0.5,0,1,0.4,1,1v22C20.3,23.5,19.9,24,19.3,24z"/>
	<path class="st1" d="M4.7,22.5v-21C4.7,1.2,4.9,1,5.2,1h13.6c0.3,0,0.5,0.2,0.5,0.5v21c0,0.3-0.2,0.5-0.5,0.5H5.2
		C4.9,23,4.7,22.8,4.7,22.5z"/>
</g>
</svg>
