<svg xmlns="http://www.w3.org/2000/svg" xml:space="preserve" id="Capa_1" x="0" y="0" version="1.1" viewBox="0 0 24 24"><style>.st0{fill:#f4f4f4}</style><path d="M19.3 24H4.7c-.6 0-1-.5-1-1V1c0-.6.4-1 1-1h14.6c.5 0 1 .4 1 1v22c0 .5-.4 1-1 1" class="st0"/><path d="M5.2 22.9c-.2 0-.4-.2-.4-.4v-21c0-.2.2-.4.4-.4h13.6c.2 0 .4.2.4.4v21c0 .2-.2.4-.4.4z" class="st0"/><path d="M18.8 1.2c.1 0 .2.1.2.2v21c0 .1-.1.2-.2.2H5.2c-.1 0-.2-.1-.2-.2v-21c0-.1.1-.2.2-.2zm0-.2H5.2c-.3 0-.5.2-.5.5v21c0 .3.2.5.5.5h13.6c.3 0 .5-.2.5-.5v-21c0-.3-.2-.5-.5-.5"/><path d="M10.3 15.6c-.1 0-.1 0-.1-.1L9.3 14 8 12.9s-.1-.1 0-.1l.6-1.6.1-1.7c0-.1 0-.1.1-.1l1.6-.5 1.4-1h.1l1.4 1 1.6.5c.1 0 .1.1.1.1l.1 1.7.7 1.6v.1L14.7 14l-.8 1.5c0 .1-.1.1-.1.1l-1.8-.2z" style="fill:#1d1d1b"/><path d="m8.7 12.7 1.1 1 .7 1.3 1.5-.2 1.5.2.7-1.3 1.1-1-.6-1.4-.1-1.5-1.4-.4-1.2-.8-1.2.9-1.5.3-.1 1.5z" style="fill:#b7b6b6"/></svg>