<?xml version="1.0" encoding="utf-8"?>
<!-- Generator: Adobe Illustrator 27.0.0, SVG Export Plug-In . SVG Version: 6.00 Build 0)  -->
<svg version="1.1" id="Capa_1" xmlns="http://www.w3.org/2000/svg" xmlns:xlink="http://www.w3.org/1999/xlink" x="0px" y="0px"
	 viewBox="0 0 24 24" style="enable-background:new 0 0 24 24;" xml:space="preserve">
<style type="text/css">
	.st0{fill:#F4F4F4;}
	.st1{fill:#1D1D1B;}
	.st2{fill:#B7B6B6;}
</style>
<g>
	<path class="st0" d="M19.3,24H4.7c-0.6,0-1-0.5-1-1V1c0-0.6,0.4-1,1-1h14.6c0.5,0,1,0.4,1,1v22C20.3,23.5,19.9,24,19.3,24z"/>
	<g>
		<path class="st0" d="M5.2,22.9c-0.2,0-0.4-0.2-0.4-0.4v-21c0-0.2,0.2-0.4,0.4-0.4h13.6c0.2,0,0.4,0.2,0.4,0.4v21
			c0,0.2-0.2,0.4-0.4,0.4H5.2z"/>
		<path d="M18.8,1.2c0.1,0,0.2,0.1,0.2,0.2v21c0,0.1-0.1,0.2-0.2,0.2H5.2c-0.1,0-0.2-0.1-0.2-0.2v-21c0-0.1,0.1-0.2,0.2-0.2H18.8
			 M18.8,1H5.2C4.9,1,4.7,1.2,4.7,1.5v21c0,0.3,0.2,0.5,0.5,0.5h13.6c0.3,0,0.5-0.2,0.5-0.5v-21C19.3,1.2,19.1,1,18.8,1L18.8,1z"/>
	</g>
	<g>
		<path class="st1" d="M10.3,15.6c-0.1,0-0.1,0-0.1-0.1l-0.9-1.5L8,12.9c0,0-0.1-0.1,0-0.1l0.6-1.6l0.1-1.7c0-0.1,0-0.1,0.1-0.1
			l1.6-0.5l1.4-1c0.1,0,0.1,0,0.1,0l1.4,1l1.6,0.5c0.1,0,0.1,0.1,0.1,0.1l0.1,1.7l0.7,1.6c0,0.1,0,0.1,0,0.1L14.7,14l-0.8,1.5
			c0,0.1-0.1,0.1-0.1,0.1L12,15.4L10.3,15.6C10.3,15.6,10.3,15.6,10.3,15.6z"/>
		<path class="st2" d="M8.7,12.7l1.1,1c0,0,0,0,0,0l0.7,1.3l1.5-0.2c0,0,0,0,0,0l1.5,0.2l0.7-1.3c0,0,0,0,0,0l1.1-1l-0.6-1.4
			c0,0,0,0,0,0l-0.1-1.5l-1.4-0.4c0,0,0,0,0,0l-1.2-0.8l-1.2,0.9c0,0,0,0,0,0L9.3,9.8l-0.1,1.5c0,0,0,0,0,0L8.7,12.7z"/>
		<path class="st1" d="M10.5,8.9L10.5,8.9L10.5,8.9z"/>
	</g>
</g>
</svg>
