<?xml version="1.0" encoding="utf-8"?>
<!-- Generator: Adobe Illustrator 27.0.0, SVG Export Plug-In . SVG Version: 6.00 Build 0)  -->
<svg version="1.1" id="Capa_1" xmlns="http://www.w3.org/2000/svg" xmlns:xlink="http://www.w3.org/1999/xlink" x="0px" y="0px"
	 viewBox="0 0 24 24" style="enable-background:new 0 0 24 24;" xml:space="preserve">
<style type="text/css">
	.st0{fill:#F4F4F4;}
	.st1{fill:#414B9A;}
	.st2{fill:#1D1D1B;}
	.st3{fill:#B7B6B6;}
</style>
<g>
	<path class="st0" d="M19.3,24H4.7c-0.6,0-1-0.5-1-1V1c0-0.6,0.4-1,1-1h14.6c0.5,0,1,0.4,1,1v22C20.3,23.5,19.9,24,19.3,24z"/>
	<path class="st1" d="M4.7,22.5v-21C4.7,1.2,4.9,1,5.2,1h13.6c0.3,0,0.5,0.2,0.5,0.5v21c0,0.3-0.2,0.5-0.5,0.5H5.2
		C4.9,23,4.7,22.8,4.7,22.5z"/>
</g>
<g>
	<path class="st2" d="M10.3,21.4c0,0-0.1,0-0.1-0.1l-0.9-1.5L8,18.7c0,0-0.1-0.1,0-0.1L8.6,17l0.1-1.7c0-0.1,0-0.1,0.1-0.1l1.6-0.5
		l1.4-1c0,0,0.1,0,0.2,0l1.4,1l1.7,0.5c0.1,0,0.1,0.1,0.1,0.1l0.1,1.7l0.7,1.6c0,0.1,0,0.1,0,0.1l-1.3,1.2l-0.8,1.5
		c0,0-0.1,0.1-0.1,0.1L12,21.2L10.3,21.4C10.3,21.4,10.3,21.4,10.3,21.4z"/>
	<path class="st3" d="M8.7,18.5l1.1,1c0,0,0,0,0,0l0.7,1.3l1.5-0.2c0,0,0,0,0,0l1.5,0.2l0.7-1.3c0,0,0,0,0,0l1.1-1l-0.6-1.4
		c0,0,0,0,0,0l-0.1-1.5l-1.4-0.4c0,0,0,0,0,0L12,14.3l-1.2,0.9c0,0,0,0,0,0l-1.4,0.4l-0.1,1.5c0,0,0,0,0,0L8.7,18.5z"/>
	<path class="st2" d="M10.5,14.8L10.5,14.8L10.5,14.8z"/>
</g>
</svg>
