<svg xmlns="http://www.w3.org/2000/svg" xml:space="preserve" id="Capa_1" x="0" y="0" style="enable-background:new 0 0 24 24" version="1.1" viewBox="0 0 24 24"><style>.st2{fill:#1d1d1b}</style><path d="M19.3 24H4.7c-.6 0-1-.5-1-1V1c0-.6.4-1 1-1h14.6c.5 0 1 .4 1 1v22c0 .5-.4 1-1 1z" style="fill:#f4f4f4"/><path d="M4.7 22.5v-21c0-.3.2-.5.5-.5h13.6c.3 0 .5.2.5.5v21c0 .3-.2.5-.5.5H5.2c-.3 0-.5-.2-.5-.5z" style="fill:#414b9a"/><path d="M10.3 21.4s-.1 0-.1-.1l-.9-1.5L8 18.7s-.1-.1 0-.1l.6-1.6.1-1.7c0-.1 0-.1.1-.1l1.6-.5 1.4-1h.2l1.4 1 1.7.5c.1 0 .1.1.1.1l.1 1.7.7 1.6v.1l-1.3 1.2-.8 1.5-.1.1-1.8-.3-1.7.2z" class="st2"/><path d="m8.7 18.5 1.1 1 .7 1.3 1.5-.2 1.5.2.7-1.3 1.1-1-.6-1.4-.1-1.5-1.4-.4-1.2-.9-1.2.9-1.4.4-.1 1.5-.6 1.4z" style="fill:#b7b6b6"/><path d="M10.5 14.8z" class="st2"/></svg>