<svg xmlns="http://www.w3.org/2000/svg" xml:space="preserve" id="Capa_1" x="0" y="0" style="enable-background:new 0 0 24 24" version="1.1" viewBox="0 0 24 24"><style>.st1{fill:#d6d6d6}</style><path d="M0 5.6v.8c0 6.6 5.4 12 12 12s12-5.4 12-12v-.8H0z" style="fill:#f4f4f4"/><path d="M4 13.8c-1.9-1.9-2.9-4.5-3-7.2h10.2L4 13.8z" class="st1"/><path d="M10.9 6.8 4 13.6c-1.8-1.9-2.8-4.3-2.8-6.9h9.7m.6-.2H.9C.9 9.3 2 12 4 14l7.5-7.5z"/><path d="M12.9 6.6h10.2c0 2.7-1.1 5.3-3 7.2l-7.2-7.2z" class="st1"/><path d="M22.9 6.8c-.1 2.6-1.1 5-2.8 6.9l-6.9-6.9h9.7m.3-.3H12.6l7.5 7.5c2-2 3.1-4.7 3.1-7.5z"/><path d="M12.1 17.3c-2.9 0-5.6-1.1-7.6-3l7.6-7.6 7.6 7.6c-2.2 1.9-4.8 3-7.6 3z" class="st1"/><path d="m12.1 6.9 7.4 7.4c-2.1 1.9-4.7 2.9-7.4 2.9-2.8 0-5.4-1-7.4-2.9l7.4-7.4m0-.4-7.8 7.8c2.1 2 4.9 3.1 7.8 3.1s5.6-1.1 7.8-3.1l-7.8-7.8z"/></svg>