<?xml version="1.0" encoding="utf-8"?>
<!-- Generator: Adobe Illustrator 27.0.0, SVG Export Plug-In . SVG Version: 6.00 Build 0)  -->
<svg version="1.1" id="Capa_1" xmlns="http://www.w3.org/2000/svg" xmlns:xlink="http://www.w3.org/1999/xlink" x="0px" y="0px"
	 viewBox="0 0 24 24" style="enable-background:new 0 0 24 24;" xml:space="preserve">
<style type="text/css">
	.st0{fill:#F4F4F4;}
	.st1{fill:#B0942C;}
	.st2{fill:#F4CB37;}
	.st3{fill:#725C00;}
	.st4{fill:#EBE444;}
</style>
<g>
	<circle class="st0" cx="12" cy="12" r="12"/>
	<circle class="st1" cx="12" cy="12" r="11.2"/>
	<circle class="st2" cx="12" cy="12" r="9.4"/>
	<path class="st3" d="M3.6,12.9c0-5.2,4.2-9.4,9.4-9.4c2.1,0,4.1,0.7,5.7,1.9c-1.7-1.7-4.1-2.8-6.6-2.8c-5.2,0-9.4,4.2-9.4,9.4
		c0,3.1,1.5,5.8,3.7,7.5C4.6,17.8,3.6,15.4,3.6,12.9z"/>
	<g>
		<path class="st4" d="M20.4,11.1c0,5.2-4.2,9.4-9.4,9.4c-2.1,0-4.1-0.7-5.7-1.9c1.7,1.7,4.1,2.8,6.6,2.8c5.2,0,9.4-4.2,9.4-9.4
			c0-3.1-1.5-5.8-3.7-7.5C19.4,6.2,20.4,8.6,20.4,11.1z"/>
	</g>
</g>
<g>
	<path class="st1" d="M6.2,15.7c0.5,0,0.8-0.1,0.9-0.2s0.2-0.4,0.2-0.9V9.3c0-0.4-0.1-0.7-0.2-0.9S6.7,8.3,6.2,8.3V8h3.6v0.2
		C9.3,8.3,9,8.4,8.8,8.5S8.6,8.9,8.6,9.3v5.3c0,0.5,0.1,0.7,0.2,0.9s0.5,0.2,0.9,0.2V16H6.2V15.7z"/>
	<path class="st1" d="M10.2,15.7c0.5,0,0.8-0.1,0.9-0.2s0.2-0.4,0.2-0.9V9.3c0-0.4-0.1-0.7-0.2-0.9s-0.5-0.2-0.9-0.2V8h3.6v0.2
		c-0.5,0-0.8,0.1-0.9,0.2s-0.2,0.4-0.2,0.9v5.3c0,0.5,0.1,0.7,0.2,0.9s0.5,0.2,0.9,0.2V16h-3.6V15.7z"/>
	<path class="st1" d="M14.2,15.7c0.5,0,0.8-0.1,0.9-0.2s0.2-0.4,0.2-0.9V9.3c0-0.4-0.1-0.7-0.2-0.9s-0.5-0.2-0.9-0.2V8h3.6v0.2
		c-0.5,0-0.8,0.1-0.9,0.2s-0.2,0.4-0.2,0.9v5.3c0,0.5,0.1,0.7,0.2,0.9s0.5,0.2,0.9,0.2V16h-3.6V15.7z"/>
</g>
</svg>
