<svg xmlns="http://www.w3.org/2000/svg" xml:space="preserve" id="Capa_1" x="0" y="0" style="enable-background:new 0 0 24 24" version="1.1" viewBox="0 0 24 24"><style>.st1{fill:#b0942c}</style><circle cx="12" cy="12" r="12" style="fill:#f4f4f4"/><circle cx="12" cy="12" r="11.2" class="st1"/><circle cx="12" cy="12" r="9.4" style="fill:#f4cb37"/><path d="M3.6 12.9c0-5.2 4.2-9.4 9.4-9.4 2.1 0 4.1.7 5.7 1.9-1.7-1.7-4.1-2.8-6.6-2.8-5.2 0-9.4 4.2-9.4 9.4 0 3.1 1.5 5.8 3.7 7.5-1.8-1.7-2.8-4.1-2.8-6.6z" style="fill:#725c00"/><path d="M20.4 11.1c0 5.2-4.2 9.4-9.4 9.4-2.1 0-4.1-.7-5.7-1.9 1.7 1.7 4.1 2.8 6.6 2.8 5.2 0 9.4-4.2 9.4-9.4 0-3.1-1.5-5.8-3.7-7.5 1.8 1.7 2.8 4.1 2.8 6.6z" style="fill:#ebe444"/><path d="M6.2 15.7c.5 0 .8-.1.9-.2s.2-.4.2-.9V9.3c0-.4-.1-.7-.2-.9s-.4-.1-.9-.1V8h3.6v.2c-.5.1-.8.2-1 .3s-.2.4-.2.8v5.3c0 .5.1.7.2.9s.5.2.9.2v.3H6.2v-.3zm4 0c.5 0 .8-.1.9-.2s.2-.4.2-.9V9.3c0-.4-.1-.7-.2-.9s-.5-.2-.9-.2V8h3.6v.2c-.5 0-.8.1-.9.2s-.2.4-.2.9v5.3c0 .5.1.7.2.9s.5.2.9.2v.3h-3.6v-.3zm4 0c.5 0 .8-.1.9-.2s.2-.4.2-.9V9.3c0-.4-.1-.7-.2-.9s-.5-.2-.9-.2V8h3.6v.2c-.5 0-.8.1-.9.2s-.2.4-.2.9v5.3c0 .5.1.7.2.9s.5.2.9.2v.3h-3.6v-.3z" class="st1"/></svg>