<?xml version="1.0" encoding="utf-8"?>
<!-- Generator: Adobe Illustrator 27.0.0, SVG Export Plug-In . SVG Version: 6.00 Build 0)  -->
<svg version="1.1" id="Capa_1" xmlns="http://www.w3.org/2000/svg" xmlns:xlink="http://www.w3.org/1999/xlink" x="0px" y="0px"
	 viewBox="0 0 32 32" style="enable-background:new 0 0 32 32;" xml:space="preserve">
<style type="text/css">
	.st0{fill:#F7C602;}
</style>
<path class="st0" d="M19.8,26.2c2.4-0.3,1.8-1.3,2.6-3.4C21.2,22.7,19.4,24.4,19.8,26.2z M22,5.5c0,0.5,1.3,1.7,2.5,1.3
	C24.2,5.4,23.5,5.8,22,5.5z M23,24.4c2-0.9,1.2-1.6,1.3-3.7C23.3,20.8,22.2,22.9,23,24.4z M25.7,11c-0.3,0.7,0.7,2.4,1.8,2.4
	C27.8,11.8,27,11.9,25.7,11z M23.5,7.2c0,0.7,1.2,1.8,2.2,1.6C25.5,7.2,24.9,7.6,23.5,7.2z M25,8.9c-0.1,0.7,0.9,2.2,2.1,2.2
	C27,9.5,26.3,9.7,25,8.9z M6.8,18.1c-0.7,1.8-1.4,2.2-0.1,3.7C7.9,20.8,7.5,18.6,6.8,18.1z M6.5,15.5C5.2,17,4.2,17.2,5.2,19
	C6.7,18.5,7.1,16.1,6.5,15.5z M7.2,8.9c-1.4,0.8-2.1,0.6-2.1,2.3C6.4,11.2,7.2,9.6,7.2,8.9z M4.6,13.4c1.2-0.1,2.1-1.8,1.8-2.4
	C5.1,11.9,4.3,11.8,4.6,13.4z M4.6,16.4c1.6-0.4,2.2-2.6,1.8-3.3C5,14.4,3.9,14.4,4.6,16.4z M8.4,7.2C7,7.6,6.4,7.2,6,8.8
	C7.2,9.1,8.4,7.8,8.4,7.2z M27.5,10.2C28.7,9.8,29,8,28.7,7.5C27.5,8.7,27,8.7,27.5,10.2z M26.8,5.5c-0.5,1.4-1.2,1.8-0.1,2.9
	C27.5,7.6,27.4,5.8,26.8,5.5z M28.2,12.3c1.3-0.4,1.7-2.5,1.3-3C28.3,10.6,27.5,10.6,28.2,12.3z M28.7,14.4c1.4-0.3,2.2-2.2,2-2.9
	C29,12.7,28,12.6,28.7,14.4z M25.8,13c-0.4,0.8,0.3,3,1.8,3.3C28.2,14.4,27.3,14.4,25.8,13z M28.5,16.5c1.4,0,2.6-2,2.5-2.7
	C29.2,14.8,28.3,14.6,28.5,16.5z M25.3,21.8c1.4-1.4,0.5-1.8-0.1-3.7C24.5,18.6,24.1,20.8,25.3,21.8z M25.7,3.8
	c-0.5,1.4-1.2,1.7-0.1,2.9C26.3,5.9,26,4.2,25.7,3.8z M26.8,19.1c0.9-1.8-0.1-2-1.3-3.5C25,16.1,25.4,18.5,26.8,19.1z M24.3,5.1
	c0.7-0.9,0-2.5-0.5-2.7C23.6,3.8,23,4.3,24.3,5.1z M20.2,26.9c0.5,1.6,2.9,2.1,3.7,1.7C22.4,27.1,22.4,26.1,20.2,26.9z M8,28.4
	c0.8,0.5,3.1-0.1,3.7-1.7C9.7,25.9,9.7,27,8,28.4z M9.7,25.7c-2-1.2-2.1-0.1-4.1,0.9C6.3,27.3,8.9,27.1,9.7,25.7z M6.2,22.5
	c-1.4-1.6-1.8-0.7-3.8-0.1C2.9,23.1,5.2,23.7,6.2,22.5z M7.7,24.4c-1.4-1.6-1.8-0.7-3.9-0.1C4.2,25,6.7,25.6,7.7,24.4z M9.2,24.2
	c0.8-1.4-0.5-3.5-1.3-3.7C8,22.7,7.2,23.5,9.2,24.2z M25.8,22.5c1,1.2,3.4,0.7,3.9-0.1C27.5,21.9,27.2,21,25.8,22.5z M27.8,19
	c1.6,0.3,3.1-1.6,3-2.4C29,17.3,28,16.9,27.8,19z M27,20.7c1.3,0.9,3.4-0.1,3.8-0.9C28.8,19.7,28,18.9,27,20.7z M22.5,25.8
	c0.8,1.4,3.4,1.6,4.1,0.9C24.5,25.7,24.3,24.6,22.5,25.8z M5,20.7c-1-1.8-1.7-1-3.8-0.9C1.6,20.6,3.7,21.6,5,20.7z M24.3,24.4
	c1,1.2,3.4,0.7,3.9-0.1C26.2,23.7,25.8,22.8,24.3,24.4z"/>
<path class="st0" d="M18.5,28.2c-0.3-0.1-0.7-0.4-1-0.5c-0.1,0-0.5-0.3-0.8-0.3c3.1-0.1,5.9-1.6,7.9-3.7c2.2-2.2,3.5-5.4,3.5-8.9
	c0,3.4-1.3,6.5-3.5,8.8s-5.1,3.7-8.5,3.7S9.8,26,7.7,23.8c-2.3-2.3-3.6-5.4-3.6-8.8c0,3.5,1.3,6.5,3.5,8.9c2.1,2.1,4.8,3.4,7.9,3.7
	c-1,0.4-3.5,1.7-3.5,2c0,0.1,0.1,0.1,0.1,0.1h0.3c0.3-0.3,0.5-0.5,0.8-0.7c0.3-0.1,0.7-0.4,0.9-0.5c0.3-0.1,1.6-0.8,2-0.9
	c0.4,0.1,1.7,0.8,2,0.9s0.7,0.4,0.9,0.5c0.3,0.3,0.5,0.5,0.8,0.7H20c0,0,0.1,0,0.1-0.1C20.2,29.2,18.8,28.3,18.5,28.2z"/>
<path class="st0" d="M23,4.6c-0.1-2-1-1.6-2.7-2.2c-0.1,0.8,1.3,2.5,2.6,2.4c0.5,0.4,1,0.8,1.6,1.3c2.2,2.2,3.5,5.4,3.5,8.8
	c0-3.5-1.3-6.5-3.5-8.9C24,5.4,23.5,5,23,4.6z M9.2,4.9c1.3,0,2.6-1.6,2.5-2.4C10,3.2,9,2.8,8.9,4.7C8.5,5.1,8,5.7,7.6,6.1
	C5.4,8.3,4.1,11.4,4.1,15c0-3.4,1.3-6.5,3.5-8.8C8.1,5.7,8.6,5.3,9.2,4.9z M6.4,3.8C6,4.2,5.6,5.9,6.5,6.7C7.6,5.7,6.9,5.3,6.4,3.8z
	 M5.2,5.5C4.7,5.8,4.5,7.6,5.3,8.4C6.3,7.2,5.8,7,5.2,5.5z"/>
<path class="st0" d="M8.2,2.4C7.7,2.6,7.1,4.2,7.7,5.1C8.9,4.3,8.4,3.8,8.2,2.4z M10.1,5.4c-1.5,0.4-2-0.1-2.4,1.3
	C8.8,7.1,10.1,6.1,10.1,5.4z M12.2,26.2c0.4-1.7-1.6-3.5-2.5-3.4C10.4,24.9,9.9,25.8,12.2,26.2z M1.2,16.7c-0.1,0.8,1.4,2.6,3,2.4
	C3.9,16.9,3,17.3,1.2,16.7z M3.4,14.4c0.5-1.8-0.4-1.7-1.8-2.9C1.3,12.2,2.1,14.2,3.4,14.4z M4.6,10.2c0.7-1.4-0.1-1.6-1.2-2.7
	C3,8,3.4,9.7,4.6,10.2z M3.5,16.5c0.1-2-0.8-1.7-2.5-2.7C0.9,14.7,2.1,16.7,3.5,16.5z M3.8,12.3c0.7-1.7-0.1-1.7-1.3-3.1
	C2.1,9.8,2.5,11.8,3.8,12.3z M12.4,11.3c0,0,0-0.1,0.1-0.3c0.1-0.5,0.1-0.6,0.2-0.8c0.1-0.1,0.2-0.3,0.3-0.3c0,0,0.1,0,0.2-0.1
	c0.1,0,0.2-0.1,0.3-0.1c0.2,0,0.4-0.1,0.6-0.1h5.6c-0.1,0.2-0.3,0.5-0.4,0.7c-2.4,4.3-4.4,9.3-5.1,11.6c-0.1,0.2-0.1,0.4-0.1,0.6
	v0.2h0.1c0.4,0,1.5-0.7,1.6-1v-0.8c0.3-2.4,3.5-9.7,5-12c0.1-0.1,0.2-0.2,0.2-0.3c-0.1-0.1-0.2-0.1-0.4-0.1h-7
	c-0.6-0.1-0.8-0.1-0.9-0.1v1c0,0.2,0,0.3-0.1,0.5c0,0.2,0,0.3-0.1,0.5v0.8C12.4,11.2,12.4,11.3,12.4,11.3z"/>
</svg>
