<?xml version="1.0" encoding="utf-8"?>
<!-- Generator: Adobe Illustrator 27.0.0, SVG Export Plug-In . SVG Version: 6.00 Build 0)  -->
<svg version="1.1" id="Capa_1" xmlns="http://www.w3.org/2000/svg" xmlns:xlink="http://www.w3.org/1999/xlink" x="0px" y="0px"
	 viewBox="0 0 24 24" style="enable-background:new 0 0 24 24;" xml:space="preserve">
<style type="text/css">
	.st0{fill:#F4F4F4;}
	.st1{fill:#B41920;}
	.st2{fill:#79211E;}
	.st3{fill:#4F4F4F;}
	.st4{fill:#727272;}
	.st5{fill:#B7B6B6;}
	.st6{fill:#2D2320;}
</style>
<g>
	<circle class="st0" cx="12" cy="12" r="12"/>
	<ellipse class="st1" cx="12" cy="12" rx="11.2" ry="11.2"/>
	<circle class="st2" cx="12" cy="12" r="9.4"/>
	<path class="st3" d="M12,2.6c-5.2,0-9.4,4.2-9.4,9.4s4.2,9.4,9.4,9.4c5.2,0,9.4-4.2,9.4-9.4S17.2,2.6,12,2.6z M12,20.8
		c-4.9,0-8.8-4-8.8-8.8S7.1,3.2,12,3.2s8.8,3.9,8.8,8.8S16.9,20.8,12,20.8z"/>
	<g>
		<path class="st4" d="M3.4,6.2c0.3,0.6,0.7,1.1,1.1,1.5l11.8,11l1.2-1.2L0.7,0.7L3.4,6.2z"/>
		<path class="st5" d="M7.7,4.5C7.3,4.1,6.8,3.7,6.2,3.4L0.7,0.7l16.9,16.9l1.2-1.2L7.7,4.5z"/>
		<path class="st6" d="M19.6,15.6l-1.4,0.7c-0.8,0.5-1.4,1.2-1.9,1.9l-0.7,1.4c-0.1,0.3,0.1,0.6,0.4,0.4l1.4-0.7l4,3.2
			c-0.2,0.5-0.2,1,0,1.3c0.4,0.4,1.3,0.2,2-0.5s0.9-1.5,0.5-2c-0.3-0.3-0.8-0.3-1.3,0l-3.2-4L20,16C20.1,15.7,19.9,15.4,19.6,15.6z"
			/>
	</g>
	<g>
		<path class="st4" d="M17.8,3.4c-0.6,0.3-1.1,0.7-1.5,1.1l-11,11.8l1.2,1.2L23.3,0.7L17.8,3.4z"/>
		<path class="st5" d="M19.5,7.7c0.5-0.4,0.8-0.9,1.1-1.5l2.7-5.6L6.5,17.5l1.2,1.2L19.5,7.7z"/>
		<path class="st6" d="M8.4,19.6l-0.7-1.4c-0.5-0.8-1.2-1.4-1.9-1.9l-1.4-0.7C4.1,15.4,3.8,15.7,4,16l0.7,1.4l-3.2,3.9
			c-0.5-0.2-1-0.2-1.3,0c-0.4,0.4-0.2,1.3,0.4,2s1.5,0.9,2,0.5c0.3-0.3,0.3-0.8,0-1.3l4-3.2L8,20C8.3,20.1,8.6,19.9,8.4,19.6z"/>
	</g>
</g>
</svg>
