<svg xmlns="http://www.w3.org/2000/svg" xml:space="preserve" id="Capa_1" x="0" y="0" style="enable-background:new 0 0 24 24" version="1.1" viewBox="0 0 24 24"><style>.st4{fill:#727272}.st5{fill:#b7b6b6}.st6{fill:#2d2320}</style><circle cx="12" cy="12" r="12" style="fill:#f4f4f4"/><circle cx="12" cy="12" r="11.2" style="fill:#b41920"/><circle cx="12" cy="12" r="9.4" style="fill:#79211e"/><path d="M12 2.6c-5.2 0-9.4 4.2-9.4 9.4s4.2 9.4 9.4 9.4 9.4-4.2 9.4-9.4-4.2-9.4-9.4-9.4zm0 18.2c-4.9 0-8.8-4-8.8-8.8S7.1 3.2 12 3.2s8.8 3.9 8.8 8.8-3.9 8.8-8.8 8.8z" style="fill:#4f4f4f"/><path d="M3.4 6.2c.3.6.7 1.1 1.1 1.5l11.8 11 1.2-1.2L.7.7l2.7 5.5z" class="st4"/><path d="M7.7 4.5c-.4-.4-.9-.8-1.5-1.1L.7.7l16.9 16.9 1.2-1.2L7.7 4.5z" class="st5"/><path d="m19.6 15.6-1.4.7c-.8.5-1.4 1.2-1.9 1.9l-.7 1.4c-.1.3.1.6.4.4l1.4-.7 4 3.2c-.2.5-.2 1 0 1.3.4.4 1.3.2 2-.5s.9-1.5.5-2c-.3-.3-.8-.3-1.3 0l-3.2-4L20 16c.1-.3-.1-.6-.4-.4z" class="st6"/><path d="M17.8 3.4c-.6.3-1.1.7-1.5 1.1l-11 11.8 1.2 1.2L23.3.7l-5.5 2.7z" class="st4"/><path d="M19.5 7.7c.5-.4.8-.9 1.1-1.5L23.3.6 6.5 17.5l1.2 1.2 11.8-11z" class="st5"/><path d="m8.4 19.6-.7-1.4c-.5-.8-1.2-1.4-1.9-1.9l-1.4-.7c-.3-.2-.6.1-.4.4l.7 1.4-3.2 3.9c-.5-.2-1-.2-1.3 0-.4.4-.2 1.3.4 2s1.5.9 2 .5c.3-.3.3-.8 0-1.3l4-3.2L8 20c.3.1.6-.1.4-.4z" class="st6"/></svg>