<svg xmlns="http://www.w3.org/2000/svg" xml:space="preserve" id="Capa_1" x="0" y="0" style="enable-background:new 0 0 24 24" version="1.1" viewBox="0 0 24 24"><style>.st1{fill:#006338}</style><circle cx="12" cy="12" r="12" style="fill:#f4f4f4"/><circle cx="12" cy="12" r="11.2" class="st1"/><circle cx="12" cy="12" r="9.4" style="fill:#46aa6f"/><path d="M12 2.6c-5.2 0-9.4 4.2-9.4 9.4s4.2 9.4 9.4 9.4 9.4-4.2 9.4-9.4-4.2-9.4-9.4-9.4zm0 18.2c-4.9 0-8.8-4-8.8-8.8S7.1 3.2 12 3.2s8.8 3.9 8.8 8.8-3.9 8.8-8.8 8.8z" style="fill:#c6d552"/><path d="M13.7 16.9c1.1-.1.9-.6 1.2-1.6-.5-.1-1.4.7-1.2 1.6zm1.1-9.7c0 .2.6.8 1.2.6-.2-.6-.5-.5-1.2-.6zm.4 8.8c.9-.4.5-.7.6-1.7-.4.1-.9 1-.6 1.7zm1.2-6.2c-.1.3.3 1.1.9 1.1.1-.8-.2-.7-.9-1.1zM15.5 8c0 .3.5.9 1 .7-.1-.7-.4-.5-1-.7zm.6.8c-.1.3.4 1 1 1 0-.8-.3-.6-1-1zm-8.5 4.3c-.3.9-.7 1-.1 1.7.6-.4.4-1.5.1-1.7zm-.1-1.2c-.6.7-1 .8-.6 1.6.7-.2.9-1.3.6-1.6zm.3-3.1c-.7.4-1 .2-1 1 .7 0 1.1-.7 1-1zm-1.2 2.1c.5-.1 1-.9.9-1.1-.7.4-1 .3-.9 1.1zm0 1.4c.7-.2 1-1.2.9-1.5-.7.6-1.2.6-.9 1.5zM8.4 8c-.6.2-.9 0-1.1.7.6.2 1.1-.4 1.1-.7zm8.9 1.4c.5-.2.7-1 .5-1.3-.4.6-.7.6-.5 1.3zM17 7.2c-.2.7-.5.9-.1 1.3.5-.3.3-1.2.1-1.3zm.7 3.2c.6-.2.8-1.2.6-1.4-.6.6-.9.6-.6 1.4zm.1 1c.7-.1 1-1 .9-1.3-.7.5-1.1.4-.9 1.3zm-1.3-.7c-.2.4.1 1.4.9 1.5.3-.8-.2-.8-.9-1.5zm1.3 1.6c.7 0 1.2-.9 1.2-1.3-.8.6-1.3.4-1.2 1.3zm-1.5 2.5c.7-.7.2-.9-.1-1.7-.2.2-.4 1.3.1 1.7zm.1-8.4c-.2.7-.5.8-.1 1.3.5-.3.3-1.1.1-1.3zm.6 7.2c.4-.9-.1-.9-.6-1.6-.3.2-.1 1.3.6 1.6zM15.8 7c.3-.4 0-1.2-.2-1.3-.1.7-.4 1 .2 1.3zm-1.9 10.2c.2.7 1.3 1 1.7.8-.7-.7-.7-1.2-1.7-.8zm-5.7.7c.4.2 1.5-.1 1.7-.8-.9-.4-.9.1-1.7.8zm.8-1.3c-.9-.5-1-.1-1.9.4.3.4 1.5.3 1.9-.4zm-1.6-1.4c-.7-.7-.9-.3-1.8-.1.2.3 1.3.6 1.8.1zm.7.8c-.7-.7-.9-.3-1.8-.1.2.4 1.3.7 1.8.1zm.6-.1c.4-.7-.2-1.6-.6-1.7.1 1-.3 1.4.6 1.7zm7.8-.7c.5.5 1.6.3 1.8-.1-.9-.3-1.1-.7-1.8.1zm1-1.7c.7.1 1.5-.7 1.4-1.1-.9.3-1.3.1-1.4 1.1zm-.4.8c.6.4 1.6-.1 1.8-.4-1-.1-1.3-.5-1.8.4zM15 16.7c.4.7 1.6.7 1.9.4-.9-.5-1.1-1-1.9-.4zm-8.2-2.4c-.5-.9-.8-.5-1.8-.4.2.3 1.2.8 1.8.4zm9 1.7c.5.5 1.6.3 1.8-.1-.9-.2-1.1-.6-1.8.1z" class="st1"/><path d="M13.1 17.8c-.1-.1-.3-.2-.5-.2-.1 0-.2-.1-.4-.1 1.5-.1 2.7-.7 3.7-1.7s1.6-2.5 1.6-4.2-.6-3.1-1.6-4.2c-.2-.2-.4-.4-.7-.6-.1-.9-.5-.7-1.3-1-.1.4.6 1.2 1.2 1.1.2.2.5.4.7.6 1 1 1.6 2.5 1.6 4.1s-.6 3.1-1.6 4.1-2.4 1.7-4 1.7S9 16.7 8 15.7s-1.6-2.5-1.6-4.1.6-3 1.6-4.1c.2-.2.5-.4.7-.6.6 0 1.2-.7 1.2-1.1-.8.3-1.2.1-1.3 1-.2.2-.4.5-.6.7-1 1-1.6 2.5-1.6 4.2s.6 3 1.6 4.1c1 1 2.3 1.6 3.7 1.7-.5.2-1.6.8-1.6.9 0 .1.1.1.1.1h.1c.1-.1.2-.2.4-.3.1-.1.3-.2.4-.2.1-.1.7-.4.9-.4.2.1.8.4.9.4.1.1.3.2.4.2.1.1.2.2.4.3h.1s.1 0 .1-.1-.6-.6-.8-.6zM7.5 6.4c-.2.2-.4 1 .1 1.3.4-.4.1-.6-.1-1.3zm-.6.8c-.2.1-.4 1 .1 1.4.5-.6.2-.7-.1-1.4z" class="st1"/><path d="M8.3 5.7c-.2.2-.5.9-.2 1.3.6-.3.3-.6.2-1.3zm.9 1.5c-.7.1-.9-.1-1.1.6.5.1 1.1-.3 1.1-.6zm1 9.7c.2-.8-.7-1.6-1.2-1.6.4 1 .1 1.4 1.2 1.6zm-3.8-3.4c-.1-1-.5-.8-1.4-1.1 0 .4.7 1.2 1.4 1.1zm-.3-2.1c.2-.9-.2-.8-.9-1.3-.1.2.2 1.1.9 1.3zm.5-2c.3-.7-.1-.7-.5-1.3-.2.3 0 1.1.5 1.3zm-.5 2.9c.1-.9-.4-.8-1.2-1.3 0 .5.5 1.4 1.2 1.3zm.1-1.9c.3-.8-.1-.8-.6-1.5-.2.3 0 1.2.6 1.5z" class="st1"/></svg>