<svg xmlns="http://www.w3.org/2000/svg" xml:space="preserve" style="enable-background:new 0 0 24 24" viewBox="0 0 24 24"><path d="M4 24c-.5 0-.9-.4-.9-.9v-.8c0-.2.1-.4.2-.5l6.6-9.2L3.2 2.3c-.1-.2-.1-.3-.1-.5V.9c0-.5.4-.9.9-.9h15.2c.5 0 .9.4.9.9l.4 5.1c0 .2-.1.5-.2.7-.2.2-.5.3-.7.3h-.8c-.5 0-.9-.4-.9-.9 0-.1 0-.3-.3-1.2-.2-.6-.5-.9-.7-1.2-.3-.3-.7-.5-1.2-.7-.5-.2-1.1-.2-1.8-.2h-3.7l4.6 7.3c.2.3.2.7 0 1l-5.4 7.3h5.9c1.4 0 2.1-.2 2.5-.3.3-.1.5-.6.7-1.2.1-.4.5-.8.9-.8h.6c.3 0 .5.1.7.3.2.2.3.5.2.7l-.7 5.9c0 .5-.4.8-.9.8H4z" style="fill:#f4f4f4"/><path d="M4 .9v.9l6.9 10.8L4 22.2v.8h15.4l.7-5.9h-.7c-.2 1-.6 1.6-1.2 1.9-.6.3-1.6.4-2.9.4H7.5l6.4-8.8-5.5-8.7h5.4c.8 0 1.5.1 2.1.3.6.2 1.1.5 1.5.8.4.3.7.9 1 1.5.3.7.4 1.2.4 1.5h.8L19.3.8 4 .9z"/></svg>