<?xml version="1.0" encoding="utf-8"?>
<!-- Generator: Adobe Illustrator 27.0.0, SVG Export Plug-In . SVG Version: 6.00 Build 0)  -->
<svg version="1.1" id="Capa_1" xmlns="http://www.w3.org/2000/svg" xmlns:xlink="http://www.w3.org/1999/xlink" x="0px" y="0px"
	 viewBox="0 0 24 24" style="enable-background:new 0 0 24 24;" xml:space="preserve">
<style type="text/css">
	.st0{fill:#F4F4F4;}
</style>
<g>
	<path class="st0" d="M4,24c-0.5,0-0.9-0.4-0.9-0.9v-0.8c0-0.2,0.1-0.4,0.2-0.5l6.6-9.2L3.2,2.3C3.1,2.1,3.1,2,3.1,1.8V0.9
		C3.1,0.4,3.5,0,4,0h15.2c0.5,0,0.9,0.4,0.9,0.9L20.5,6c0,0.2-0.1,0.5-0.2,0.7C20.1,6.9,19.8,7,19.6,7h-0.8c-0.5,0-0.9-0.4-0.9-0.9
		c0-0.1,0-0.3-0.3-1.2c-0.2-0.6-0.5-0.9-0.7-1.2c-0.3-0.3-0.7-0.5-1.2-0.7c-0.5-0.2-1.1-0.2-1.8-0.2h-3.7l4.6,7.3
		c0.2,0.3,0.2,0.7,0,1l-5.4,7.3h5.9c1.4,0,2.1-0.2,2.5-0.3c0.3-0.1,0.5-0.6,0.7-1.2c0.1-0.4,0.5-0.8,0.9-0.8H20
		c0.3,0,0.5,0.1,0.7,0.3c0.2,0.2,0.3,0.5,0.2,0.7l-0.7,5.9c0,0.5-0.4,0.8-0.9,0.8H4z"/>
	<path d="M4,0.9v0.9l6.9,10.8L4,22.2v0.8h15.4l0.7-5.9h-0.7c-0.2,1-0.6,1.6-1.2,1.9c-0.6,0.3-1.6,0.4-2.9,0.4H7.5l6.4-8.8L8.4,1.9
		h5.4c0.8,0,1.5,0.1,2.1,0.3C16.5,2.4,17,2.7,17.4,3c0.4,0.3,0.7,0.9,1,1.5c0.3,0.7,0.4,1.2,0.4,1.5h0.8l-0.3-5.2L4,0.9L4,0.9z"/>
</g>
</svg>
