<?xml version="1.0" encoding="utf-8"?>
<!-- Generator: Adobe Illustrator 27.0.0, SVG Export Plug-In . SVG Version: 6.00 Build 0)  -->
<svg version="1.1" id="Capa_1" xmlns="http://www.w3.org/2000/svg" xmlns:xlink="http://www.w3.org/1999/xlink" x="0px" y="0px"
	 viewBox="0 0 24 24" style="enable-background:new 0 0 24 24;" xml:space="preserve">
<style type="text/css">
	.st0{fill:#006338;}
</style>
<g>
	<path class="st0" d="M15,20.2c1.9-0.2,1.5-1,2-2.7C16.2,17.3,14.7,18.6,15,20.2z M16.9,3.7c0,0.3,1,1.4,2,1
		C18.6,3.7,18.1,3.9,16.9,3.7z M17.6,18.6c1.5-0.7,0.8-1.2,1-2.9C17.9,15.9,17.1,17.4,17.6,18.6z M19.6,8.1
		c-0.2,0.5,0.5,1.9,1.5,1.9C21.3,8.6,20.8,8.8,19.6,8.1z M18.1,5.1c0,0.5,0.8,1.5,1.7,1.2C19.6,5.1,19.1,5.4,18.1,5.1z M19.1,6.4
		c-0.2,0.5,0.7,1.7,1.7,1.7C20.8,6.8,20.3,7.1,19.1,6.4z M4.7,13.7c-0.5,1.5-1.2,1.7-0.2,2.9C5.5,15.9,5.2,14.1,4.7,13.7z M4.5,11.7
		c-1,1.2-1.7,1.4-1,2.7C4.7,14.1,5,12.2,4.5,11.7z M5,6.4C3.9,7.1,3.3,6.8,3.3,8.1C4.5,8.1,5.2,7,5,6.4z M3,10
		c0.8-0.2,1.7-1.5,1.5-1.9C3.3,8.8,2.8,8.6,3,10z M3,12.4c1.2-0.3,1.7-2,1.5-2.5C3.3,10.8,2.5,10.8,3,12.4z M6.1,5.1
		c-1,0.3-1.5,0-1.9,1.2C5.2,6.6,6.1,5.6,6.1,5.1z M21.1,7.5C22,7.1,22.3,5.8,22,5.3C21.3,6.3,20.8,6.3,21.1,7.5z M20.6,3.7
		c-0.3,1.2-0.8,1.5-0.2,2.2C21.3,5.4,21,3.9,20.6,3.7z M21.8,9.2c1-0.3,1.4-2,1-2.4C21.8,7.8,21.3,7.8,21.8,9.2z M22,10.8
		c1.2-0.2,1.7-1.7,1.5-2.2C22.3,9.5,21.6,9.3,22,10.8z M19.8,9.7c-0.3,0.7,0.2,2.4,1.5,2.5C21.8,10.8,21,10.8,19.8,9.7z M22,12.4
		c1.2,0,2-1.5,2-2.2C22.6,11.2,21.8,10.8,22,12.4z M19.4,16.6c1.2-1.2,0.3-1.5-0.2-2.9C18.9,14.1,18.6,15.9,19.4,16.6z M19.6,2.4
		c-0.3,1.2-0.8,1.4-0.2,2.2C20.3,4.1,19.9,2.7,19.6,2.4z M20.6,14.6c0.7-1.5-0.2-1.5-1-2.7C19.1,12.2,19.4,14.1,20.6,14.6z
		 M18.6,3.4c0.5-0.7,0-2-0.3-2.2C18.1,2.4,17.6,2.9,18.6,3.4z M15.4,20.7c0.3,1.2,2.2,1.7,2.9,1.4C17.1,20.8,17.1,20,15.4,20.7z
		 M5.7,21.8c0.7,0.3,2.5-0.2,2.9-1.4C7.1,19.8,7.1,20.7,5.7,21.8z M7.1,19.6c-1.5-0.8-1.7-0.2-3.2,0.7C4.4,21,6.4,20.8,7.1,19.6z
		 M4.4,17.3c-1.2-1.2-1.5-0.5-3-0.2C1.7,17.6,3.5,18.1,4.4,17.3z M5.5,18.6c-1.2-1.2-1.5-0.5-3-0.2C2.8,19.1,4.7,19.6,5.5,18.6z
		 M6.6,18.5c0.7-1.2-0.3-2.7-1-2.9C5.7,17.3,5,18,6.6,18.5z M19.8,17.3c0.8,0.8,2.7,0.5,3-0.2C21.3,16.6,21,15.9,19.8,17.3z
		 M21.5,14.4c1.2,0.2,2.5-1.2,2.4-1.9C22.3,13,21.6,12.7,21.5,14.4z M20.8,15.8c1,0.7,2.7-0.2,3-0.7C22.1,14.9,21.6,14.2,20.8,15.8z
		 M17.2,19.8c0.7,1.2,2.7,1.2,3.2,0.7C18.9,19.6,18.6,18.8,17.2,19.8z M3.3,15.8c-0.8-1.5-1.4-0.8-3-0.7C0.6,15.6,2.3,16.4,3.3,15.8
		z M18.6,18.6c0.8,0.8,2.7,0.5,3-0.2C20.1,18.1,19.8,17.4,18.6,18.6z"/>
	<path class="st0" d="M14,21.7c-0.2-0.2-0.5-0.3-0.8-0.3c-0.2,0-0.3-0.2-0.7-0.2c2.5-0.2,4.6-1.2,6.3-2.9c1.7-1.7,2.7-4.2,2.7-7.1
		s-1-5.2-2.7-7.1c-0.3-0.3-0.7-0.7-1.2-1c-0.2-1.5-0.8-1.2-2.2-1.7c-0.2,0.7,1,2,2,1.9c0.3,0.3,0.8,0.7,1.2,1
		c1.7,1.7,2.7,4.2,2.7,6.9s-1,5.2-2.7,6.9c-1.7,1.7-4.1,2.9-6.8,2.9s-4.7-1.2-6.4-2.9c-1.7-1.7-2.7-4.2-2.7-6.9s1-5.1,2.7-6.9
		c0.3-0.3,0.8-0.7,1.2-1c1,0,2-1.2,2-1.9c-1.4,0.5-2,0.2-2.2,1.7c-0.3,0.3-0.7,0.8-1,1.2c-1.7,1.7-2.7,4.2-2.7,7.1s1,5.1,2.7,6.9
		c1.7,1.7,3.9,2.7,6.3,2.9c-0.8,0.3-2.7,1.4-2.7,1.5s0.2,0.2,0.2,0.2h0.2c0.2-0.2,0.3-0.3,0.7-0.5c0.2-0.2,0.5-0.3,0.7-0.3
		c0.2-0.2,1.2-0.7,1.5-0.7c0.3,0.2,1.4,0.7,1.5,0.7c0.2,0.2,0.5,0.3,0.7,0.3c0.2,0.2,0.3,0.3,0.7,0.5h0.2c0,0,0.2,0,0.2-0.2
		S14.4,21.7,14,21.7z M4.5,2.4C4.2,2.7,3.9,4.1,4.7,4.6C5.4,3.9,4.9,3.6,4.5,2.4z M3.5,3.7C3.2,3.9,2.8,5.4,3.7,6.1
		C4.5,5.1,4,4.9,3.5,3.7z"/>
	<path class="st0" d="M5.9,1.2C5.5,1.5,5,2.7,5.5,3.4C6.6,2.9,6.1,2.4,5.9,1.2z M7.4,3.7c-1.2,0.2-1.5-0.2-1.9,1
		C6.4,4.9,7.4,4.2,7.4,3.7z M9.1,20.2c0.3-1.4-1.2-2.7-2-2.7C7.7,19.1,7.2,19.8,9.1,20.2z M2.7,14.4c-0.2-1.7-0.8-1.4-2.4-1.9
		C0.3,13.2,1.5,14.6,2.7,14.4z M2.2,10.8c0.3-1.5-0.3-1.4-1.5-2.2C0.5,9,1,10.5,2.2,10.8z M3,7.5c0.5-1.2-0.2-1.2-0.8-2.2
		C1.8,5.8,2.2,7.1,3,7.5z M2.2,12.4c0.2-1.5-0.7-1.4-2-2.2C0.1,11,1,12.5,2.2,12.4z M2.3,9.2c0.5-1.4-0.2-1.4-1-2.5
		C1,7.1,1.3,8.6,2.3,9.2z"/>
</g>
</svg>
