<svg xmlns="http://www.w3.org/2000/svg" xml:space="preserve" id="Capa_1" x="0" y="0" style="enable-background:new 0 0 24 24" version="1.1" viewBox="0 0 24 24"><style>.st1{fill:#ffcb00}</style><path d="M15.2 23h-.4l-.1-.1c-.1-.1-.3-.2-.4-.3-.1-.1-.2-.1-.2-.2-.1-.1-.5-.3-.6-.4-.1-.1-.9-.4-1.2-.6l-.2-.1-.1.1c-.3.1-1 .5-1.2.6-.2.1-.5.3-.7.4-.1.1-.2.1-.3.2-.1.1-.2.2-.4.3l-.1.1h-.6l-.1-.1c-.2-.2-.3-.4-.3-.5v-.8l-.7.3c-.4.2-.8.3-1.2.3-.3 0-.6-.1-.8-.2l-.5-.3.7-.6-1-.1c-.4 0-.8-.2-1-.4l-.5-.4.7-.5-.9-.4c-.4-.1-.7-.4-.8-.6l-.7-1.1h-.1l-.3-.3-.3-.5.8-.2-.8-.6c-.3-.2-.5-.4-.6-.7l-.3-.7 1.2-.1-.6-.7c-.2-.3-.6-.8-.5-1.3l.1-1.3v-.1c-.2-.3-.2-.5-.1-.7l.3-1.3V9c0-.2 0-.4.1-.6l.2-.6.2.2.1-.8c0-.2.1-.4.2-.5l.5-.8v-.1c0-.2.1-.3.1-.4l.4-.5.4.5.2-.9c.2-.4.4-.7.6-.8l.5-.3v-.2c.1-.4.3-.6.5-.7l.9-.6.1-.1c.2-.2.3-.4.5-.5l.5-.3.1 1 .6-.2c.2-.1.3-.1.5-.2.3-.1.5-.2.9-.3l.6-.2.1.6c.1.6-.4 1.2-.6 1.4-.2.2-.3.3-.5.4l-.1.1v.5c0 .4-.4.9-1 1.2l-.3.1v.2c-.1.4-.4.7-.5.8l-.3.3-.2.1V7c-.1.5-.4 1-.5 1.1l-.1.1v.2c0 .2 0 .5-.1.7l-.1.2.1.2c.2.4.2.9 0 1.5l-.1.2.1.2c.3.4.3 1 .2 1.6l-.1.2.2.2c.3.3.5.8.5 1.4v.2l.2.1c.4.3.8.8 1 1.2l.1.3h.3c.5.1 1.1.5 1.5 1 .4.5.7 1.1.7 1.7v.4l.3.3c.7.2 1.4.3 2.1.3.6 0 1.3-.1 2-.2l.4-.1v-.4c0-.6.2-1.2.7-1.8.4-.4.9-.9 1.5-1h.2l.1-.2c.2-.5.6-.9.9-1.1l.2-.1v-.2c0-.4.2-1.1.5-1.4l.2-.2-.1-.2c-.2-.7-.1-1.3.1-1.6l.2-.3-.1-.2c-.1-.5-.1-.9 0-1.2l.1-.2-.1-.2c.2-.7.1-1 .1-1.4v-.2l-.2-.1c-.1-.2-.4-.5-.4-1v-.2l-.2-.1c-.2-.1-.3-.2-.4-.3-.1-.1-.4-.4-.5-.8v-.2l-.2-.1c-.5-.3-.8-.8-.9-1.1v-.4l-.2-.2c-.2-.2-.4-.3-.6-.5-.2-.2-.7-.8-.6-1.4l.1-.6.6.2c.3.1.6.2.8.3.2.1.4.1.5.2l.7.2.1-1 .6.2c.2.1.4.2.5.5v.1l.9.6c.2.2.4.4.5.7v.2l.5.3c.2.2.4.4.5.8l.2.9.4-.5.4.5c.1.1.1.2.2.4v.1l.5.8c.1.2.2.3.2.6l.1.8.2-.2.3.6c.1.1.1.3.1.6v.1l.3 1.3c0 .2 0 .5-.1.8v.1l.1 1.3c0 .5-.3 1-.5 1.3l-.6.7 1.2.1-.2.6c-.1.2-.3.5-.6.7l-.8.6.8.2-.3.5-.3.3h-.1l-.7 1.1c-.2.3-.6.5-.9.6l-1 .3 1 .6-.5.4c-.2.2-.5.3-1 .4l-1.1.1.6.5-.5.3c-.2.1-.5.2-.8.2-.4 0-.8-.1-1.1-.2l-.6-.2-.1.6c0 .2-.1.3-.3.4l-.3.3z" style="fill:#f4f4f4"/><path d="M14.8 19.9c1.8-.2 1.4-1 2-2.6-.8-.1-2.3 1.2-2 2.6zm1.8-15.8c0 .4 1 1.3 1.9 1-.3-1.1-.8-.8-1.9-1zm.7 14.4c1.5-.7.9-1.2 1-2.8-.7.1-1.6 1.7-1 2.8zm2-10.2c-.2.5.5 1.8 1.4 1.8.2-1.2-.4-1.1-1.4-1.8zm-1.6-2.9c0 .5.9 1.4 1.7 1.2-.2-1.2-.7-.9-1.7-1.2zm1.1 1.3c-.1.5.7 1.7 1.6 1.7 0-1.3-.5-1.1-1.6-1.7zm-13.9 7c-.5 1.4-1.1 1.7-.1 2.8.9-.7.6-2.4.1-2.8zm-.2-2c-1 1.2-1.7 1.3-1 2.7 1.1-.4 1.4-2.2 1-2.7zm.5-5c-1.1.6-1.6.4-1.6 1.7 1 0 1.7-1.2 1.6-1.7zm-2 3.4c.9-.1 1.6-1.4 1.4-1.8-1 .7-1.6.6-1.4 1.8zm0 2.3c1.2-.3 1.7-2 1.4-2.5-1.1 1-1.9 1-1.4 2.5zm3-7c-1.1.3-1.5 0-1.8 1.2.9.2 1.8-.8 1.8-1.2zm14.5 2.3c.9-.3 1.2-1.7.9-2.1-.8.9-1.3.9-.9 2.1zm-.5-3.6c-.4 1.1-.9 1.4-.1 2.2.7-.6.5-2 .1-2.2zm1.1 5.2c1-.3 1.3-1.9 1-2.3-.9 1-1.5 1-1 2.3zm.3 1.6c1.1-.2 1.7-1.7 1.5-2.2-1.2.9-1.9.8-1.5 2.2zm-2.2-1.1c-.3.6.2 2.3 1.4 2.5.5-1.4-.2-1.4-1.4-2.5zm2.1 2.7c1.1 0 2-1.5 1.9-2.1-1.3.8-2 .6-1.9 2.1zm-2.4 4c1.1-1.1.4-1.4-.1-2.8-.5.4-.8 2.1.1 2.8zm.2-13.7c-.4 1.1-.9 1.3-.1 2.2.7-.6.4-1.9.1-2.2zm.9 11.7c.7-1.4-.1-1.5-1-2.7-.4.4-.1 2.2 1 2.7zM18.3 3.8c.5-.7 0-1.9-.4-2.1-.1 1.1-.6 1.5.4 2.1zm-3.1 16.6c.4 1.2 2.2 1.6 2.8 1.3-1.2-1.1-1.2-1.9-2.8-1.3zm-9.4 1.2c.6.4 2.4-.1 2.8-1.3-1.5-.6-1.5.2-2.8 1.3zm1.3-2.1c-1.5-.9-1.6-.1-3.1.7.5.5 2.5.4 3.1-.7zm-2.6-2.4c-1.1-1.2-1.4-.5-2.9-.1.3.5 2.1 1 2.9.1zm1.1 1.4c-1.1-1.2-1.4-.5-3-.1.4.6 2.2 1 3 .1zm1.1-.1c.6-1.1-.4-2.7-1-2.8.1 1.6-.5 2.2 1 2.8zm12.7-1.3c.8.9 2.6.5 3-.1-1.6-.4-1.9-1.1-3 .1zm1.6-2.7c1.2.2 2.4-1.2 2.3-1.8-1.4.5-2.1.2-2.3 1.8zm-.6 1.3c1 .7 2.6-.1 2.9-.7-1.6-.1-2.1-.7-2.9.7zm-3.5 3.9c.6 1.1 2.6 1.2 3.1.7-1.5-.8-1.7-1.6-3.1-.7zM3.5 15.7c-.8-1.4-1.3-.8-2.9-.7.3.6 1.9 1.4 2.9.7zm14.8 2.8c.8.9 2.6.5 3-.1-1.5-.4-1.9-1.1-3 .1z" class="st1"/><path d="M13.8 21.4c-.2-.1-.5-.3-.8-.4-.1 0-.4-.2-.6-.2 2.4-.1 4.5-1.2 6-2.8 1.7-1.7 2.7-4.1 2.7-6.8s-1-5-2.7-6.8c-.4-.4-.7-.7-1.1-1-.1-1.5-.8-1.2-2.1-1.7-.1.6 1 1.9 2 1.8.4.3.8.6 1.2 1 1.7 1.7 2.7 4.1 2.7 6.7s-1 5-2.7 6.7c-1.7 1.7-3.9 2.8-6.5 2.8s-4.8-1-6.4-2.7c-1.7-1.7-2.7-4.1-2.7-6.7s1-5 2.7-6.7c.4-.4.8-.7 1.2-1 1 0 2-1.2 1.9-1.8-1.3.5-2 .2-2.1 1.7l-1 1c-1.7 1.7-2.7 4.1-2.7 6.8s1 5 2.7 6.8c1.6 1.6 3.7 2.6 6 2.8-.8.3-2.7 1.3-2.7 1.5 0 .1.1.1.1.1h.2c.2-.2.4-.4.6-.5.2-.1.5-.3.7-.4.2-.1 1.2-.6 1.5-.7h.1c.3.1 1.3.6 1.5.7.2.1.5.3.7.4.2.2.4.4.6.5h.2s.1 0 .1-.1c.1-.2-1-.9-1.3-1zM4.6 2.8c-.3.3-.6 1.6.1 2.2.8-.8.3-1.1-.1-2.2zm-.9 1.3c-.4.2-.6 1.6.1 2.2.8-.9.3-1.1-.1-2.2z" class="st1"/><path d="M6 1.7c-.4.2-.9 1.4-.4 2.1 1-.6.5-1 .4-2.1zM7.4 4c-1.1.3-1.5-.1-1.8 1 .8.3 1.8-.5 1.8-1zm1.7 15.9c.3-1.3-1.2-2.7-1.9-2.6.5 1.6.1 2.3 1.9 2.6zm-6.2-5.5c-.2-1.6-.9-1.3-2.3-1.8-.1.6 1.1 2 2.3 1.8zm-.6-3.5C2.7 9.5 2 9.6.9 8.7c-.2.5.4 2 1.4 2.2zm.9-3.2c.5-1.1-.1-1.2-.9-2.1-.3.4 0 1.7.9 2.1zm-.8 4.8c.1-1.5-.6-1.3-1.9-2.1-.1.7.8 2.2 1.9 2.1zm.2-3.2c.5-1.3-.1-1.3-1-2.4-.3.5 0 2 1 2.4z" class="st1"/></svg>