<?xml version="1.0" encoding="utf-8"?>
<!-- Generator: Adobe Illustrator 27.0.0, SVG Export Plug-In . SVG Version: 6.00 Build 0)  -->
<svg version="1.1" id="Capa_1" xmlns="http://www.w3.org/2000/svg" xmlns:xlink="http://www.w3.org/1999/xlink" x="0px" y="0px"
	 viewBox="0 0 24 24" style="enable-background:new 0 0 24 24;" xml:space="preserve">
<style type="text/css">
	.st0{fill:#F4F4F4;}
	.st1{fill:#FFCB00;}
</style>
<g>
	<path class="st0" d="M15.2,23h-0.4l-0.1-0.1c-0.1-0.1-0.3-0.2-0.4-0.3c-0.1-0.1-0.2-0.1-0.2-0.2c-0.1-0.1-0.5-0.3-0.6-0.4
		c-0.1-0.1-0.9-0.4-1.2-0.6l-0.2-0.1L12,21.4c-0.3,0.1-1,0.5-1.2,0.6c-0.2,0.1-0.5,0.3-0.7,0.4c-0.1,0.1-0.2,0.1-0.3,0.2
		c-0.1,0.1-0.2,0.2-0.4,0.3L9.3,23H8.7l-0.1-0.1c-0.2-0.2-0.3-0.4-0.3-0.5v-0.8l-0.7,0.3c-0.4,0.2-0.8,0.3-1.2,0.3
		c-0.3,0-0.6-0.1-0.8-0.2l-0.5-0.3l0.7-0.6l-1-0.1c-0.4,0-0.8-0.2-1-0.4l-0.5-0.4L4,19.7l-0.9-0.4c-0.4-0.1-0.7-0.4-0.8-0.6
		l-0.7-1.1H1.5c-0.1-0.1-0.2-0.2-0.3-0.3l-0.3-0.5l0.8-0.2L0.9,16c-0.3-0.2-0.5-0.4-0.6-0.7L0,14.6l1.2-0.1l-0.6-0.7
		C0.4,13.5,0,13,0.1,12.5l0.1-1.3v-0.1C0,10.8,0,10.6,0.1,10.4l0.3-1.3V9c0-0.2,0-0.4,0.1-0.6l0.2-0.6L0.9,8L1,7.2
		C1,7,1.1,6.8,1.2,6.7l0.5-0.8V5.8c0-0.2,0.1-0.3,0.1-0.4l0.4-0.5l0.4,0.5l0.2-0.9C3,4.1,3.2,3.8,3.4,3.7l0.5-0.3V3.2
		C4,2.8,4.2,2.6,4.4,2.5l0.9-0.6l0.1-0.1c0.2-0.2,0.3-0.4,0.5-0.5L6.4,1l0.1,1l0.6-0.2c0.2-0.1,0.3-0.1,0.5-0.2
		c0.3-0.1,0.5-0.2,0.9-0.3l0.6-0.2l0.1,0.6c0.1,0.6-0.4,1.2-0.6,1.4C8.4,3.3,8.3,3.4,8.1,3.5L8,3.6v0.5C8,4.5,7.6,5,7,5.3L6.7,5.4
		v0.2C6.6,6,6.3,6.3,6.2,6.4C6.1,6.5,6,6.6,5.9,6.7L5.7,6.8V7C5.6,7.5,5.3,8,5.2,8.1L5.1,8.2v0.2c0,0.2,0,0.5-0.1,0.7L4.9,9.3L5,9.5
		c0.2,0.4,0.2,0.9,0,1.5l-0.1,0.2L5,11.4c0.3,0.4,0.3,1,0.2,1.6l-0.1,0.2l0.2,0.2c0.3,0.3,0.5,0.8,0.5,1.4V15L6,15.1
		c0.4,0.3,0.8,0.8,1,1.2l0.1,0.3h0.3c0.5,0.1,1.1,0.5,1.5,1c0.4,0.5,0.7,1.1,0.7,1.7v0.4L9.9,20c0.7,0.2,1.4,0.3,2.1,0.3
		c0.6,0,1.3-0.1,2-0.2l0.4-0.1v-0.4c0-0.6,0.2-1.2,0.7-1.8c0.4-0.4,0.9-0.9,1.5-1h0.2l0.1-0.2c0.2-0.5,0.6-0.9,0.9-1.1l0.2-0.1v-0.2
		c0-0.4,0.2-1.1,0.5-1.4l0.2-0.2l-0.1-0.2c-0.2-0.7-0.1-1.3,0.1-1.6l0.2-0.3l-0.1-0.2c-0.1-0.5-0.1-0.9,0-1.2l0.1-0.2l-0.1-0.2
		c0.2-0.7,0.1-1,0.1-1.4V8.1L18.7,8c-0.1-0.2-0.4-0.5-0.4-1V6.8l-0.2-0.1c-0.2-0.1-0.3-0.2-0.4-0.3c-0.1-0.1-0.4-0.4-0.5-0.8V5.4
		L17,5.3c-0.5-0.3-0.8-0.8-0.9-1.1V3.8l-0.2-0.2c-0.2-0.2-0.4-0.3-0.6-0.5c-0.2-0.2-0.7-0.8-0.6-1.4l0.1-0.6l0.6,0.2
		c0.3,0.1,0.6,0.2,0.8,0.3c0.2,0.1,0.4,0.1,0.5,0.2L17.4,2l0.1-1l0.6,0.2c0.2,0.1,0.4,0.2,0.5,0.5v0.1l0.9,0.6
		c0.2,0.2,0.4,0.4,0.5,0.7v0.2l0.5,0.3C20.7,3.8,20.9,4,21,4.4l0.2,0.9l0.4-0.5L22,5.3c0.1,0.1,0.1,0.2,0.2,0.4v0.1l0.5,0.8
		c0.1,0.2,0.2,0.3,0.2,0.6L23,8l0.2-0.2l0.3,0.6c0.1,0.1,0.1,0.3,0.1,0.6v0.1l0.3,1.3c0,0.2,0,0.5-0.1,0.8v0.1l0.1,1.3
		c0,0.5-0.3,1-0.5,1.3l-0.6,0.7l1.2,0.1l-0.2,0.6c-0.1,0.2-0.3,0.5-0.6,0.7l-0.8,0.6l0.8,0.2l-0.3,0.5c-0.1,0.1-0.2,0.2-0.3,0.3
		h-0.1l-0.7,1.1c-0.2,0.3-0.6,0.5-0.9,0.6l-1,0.3l1,0.6l-0.5,0.4c-0.2,0.2-0.5,0.3-1,0.4l-1.1,0.1l0.6,0.5l-0.5,0.3
		c-0.2,0.1-0.5,0.2-0.8,0.2c-0.4,0-0.8-0.1-1.1-0.2l-0.6-0.2l-0.1,0.6c0,0.2-0.1,0.3-0.3,0.4L15.2,23L15.2,23z"/>
	<g>
		<path class="st1" d="M14.8,19.9c1.8-0.2,1.4-1,2-2.6C16,17.2,14.5,18.5,14.8,19.9z"/>
		<path class="st1" d="M16.6,4.1c0,0.4,1,1.3,1.9,1C18.2,4,17.7,4.3,16.6,4.1z"/>
		<path class="st1" d="M17.3,18.5c1.5-0.7,0.9-1.2,1-2.8C17.6,15.8,16.7,17.4,17.3,18.5z"/>
		<path class="st1" d="M19.3,8.3c-0.2,0.5,0.5,1.8,1.4,1.8C20.9,8.9,20.3,9,19.3,8.3z"/>
		<path class="st1" d="M17.7,5.4c0,0.5,0.9,1.4,1.7,1.2C19.2,5.4,18.7,5.7,17.7,5.4z"/>
		<path class="st1" d="M18.8,6.7c-0.1,0.5,0.7,1.7,1.6,1.7C20.4,7.1,19.9,7.3,18.8,6.7z"/>
		<path class="st1" d="M4.9,13.7c-0.5,1.4-1.1,1.7-0.1,2.8C5.7,15.8,5.4,14.1,4.9,13.7z"/>
		<path class="st1" d="M4.7,11.7c-1,1.2-1.7,1.3-1,2.7C4.8,14,5.1,12.2,4.7,11.7z"/>
		<path class="st1" d="M5.2,6.7C4.1,7.3,3.6,7.1,3.6,8.4C4.6,8.4,5.3,7.2,5.2,6.7z"/>
		<path class="st1" d="M3.2,10.1C4.1,10,4.8,8.7,4.6,8.3C3.6,9,3,8.9,3.2,10.1z"/>
		<path class="st1" d="M3.2,12.4c1.2-0.3,1.7-2,1.4-2.5C3.5,10.9,2.7,10.9,3.2,12.4z"/>
		<path class="st1" d="M6.2,5.4c-1.1,0.3-1.5,0-1.8,1.2C5.3,6.8,6.2,5.8,6.2,5.4z"/>
		<path class="st1" d="M20.7,7.7c0.9-0.3,1.2-1.7,0.9-2.1C20.8,6.5,20.3,6.5,20.7,7.7z"/>
		<path class="st1" d="M20.2,4.1c-0.4,1.1-0.9,1.4-0.1,2.2C20.8,5.7,20.6,4.3,20.2,4.1z"/>
		<path class="st1" d="M21.3,9.3c1-0.3,1.3-1.9,1-2.3C21.4,8,20.8,8,21.3,9.3z"/>
		<path class="st1" d="M21.6,10.9c1.1-0.2,1.7-1.7,1.5-2.2C21.9,9.6,21.2,9.5,21.6,10.9z"/>
		<path class="st1" d="M19.4,9.8c-0.3,0.6,0.2,2.3,1.4,2.5C21.3,10.9,20.6,10.9,19.4,9.8z"/>
		<path class="st1" d="M21.5,12.5c1.1,0,2-1.5,1.9-2.1C22.1,11.2,21.4,11,21.5,12.5z"/>
		<path class="st1" d="M19.1,16.5c1.1-1.1,0.4-1.4-0.1-2.8C18.5,14.1,18.2,15.8,19.1,16.5z"/>
		<path class="st1" d="M19.3,2.8c-0.4,1.1-0.9,1.3-0.1,2.2C19.9,4.4,19.6,3.1,19.3,2.8z"/>
		<path class="st1" d="M20.2,14.5c0.7-1.4-0.1-1.5-1-2.7C18.8,12.2,19.1,14,20.2,14.5z"/>
		<path class="st1" d="M18.3,3.8c0.5-0.7,0-1.9-0.4-2.1C17.8,2.8,17.3,3.2,18.3,3.8z"/>
		<path class="st1" d="M15.2,20.4c0.4,1.2,2.2,1.6,2.8,1.3C16.8,20.6,16.8,19.8,15.2,20.4z"/>
		<path class="st1" d="M5.8,21.6c0.6,0.4,2.4-0.1,2.8-1.3C7.1,19.7,7.1,20.5,5.8,21.6z"/>
		<path class="st1" d="M7.1,19.5c-1.5-0.9-1.6-0.1-3.1,0.7C4.5,20.7,6.5,20.6,7.1,19.5z"/>
		<path class="st1" d="M4.5,17.1c-1.1-1.2-1.4-0.5-2.9-0.1C1.9,17.5,3.7,18,4.5,17.1z"/>
		<path class="st1" d="M5.6,18.5c-1.1-1.2-1.4-0.5-3-0.1C3,19,4.8,19.4,5.6,18.5z"/>
		<path class="st1" d="M6.7,18.4c0.6-1.1-0.4-2.7-1-2.8C5.8,17.2,5.2,17.8,6.7,18.4z"/>
		<path class="st1" d="M19.4,17.1c0.8,0.9,2.6,0.5,3-0.1C20.8,16.6,20.5,15.9,19.4,17.1z"/>
		<path class="st1" d="M21,14.4c1.2,0.2,2.4-1.2,2.3-1.8C21.9,13.1,21.2,12.8,21,14.4z"/>
		<path class="st1" d="M20.4,15.7c1,0.7,2.6-0.1,2.9-0.7C21.7,14.9,21.2,14.3,20.4,15.7z"/>
		<path class="st1" d="M16.9,19.6c0.6,1.1,2.6,1.2,3.1,0.7C18.5,19.5,18.3,18.7,16.9,19.6z"/>
		<path class="st1" d="M3.5,15.7c-0.8-1.4-1.3-0.8-2.9-0.7C0.9,15.6,2.5,16.4,3.5,15.7z"/>
		<path class="st1" d="M18.3,18.5c0.8,0.9,2.6,0.5,3-0.1C19.8,18,19.4,17.3,18.3,18.5z"/>
		<path class="st1" d="M13.8,21.4c-0.2-0.1-0.5-0.3-0.8-0.4c-0.1,0-0.4-0.2-0.6-0.2c2.4-0.1,4.5-1.2,6-2.8c1.7-1.7,2.7-4.1,2.7-6.8
			s-1-5-2.7-6.8c-0.4-0.4-0.7-0.7-1.1-1c-0.1-1.5-0.8-1.2-2.1-1.7c-0.1,0.6,1,1.9,2,1.8c0.4,0.3,0.8,0.6,1.2,1
			c1.7,1.7,2.7,4.1,2.7,6.7s-1,5-2.7,6.7c-1.7,1.7-3.9,2.8-6.5,2.8s-4.8-1-6.4-2.7c-1.7-1.7-2.7-4.1-2.7-6.7s1-5,2.7-6.7
			c0.4-0.4,0.8-0.7,1.2-1c1,0,2-1.2,1.9-1.8C7.3,2.3,6.6,2,6.5,3.5l0,0c-0.3,0.3-0.7,0.7-1,1c-1.7,1.7-2.7,4.1-2.7,6.8s1,5,2.7,6.8
			c1.6,1.6,3.7,2.6,6,2.8c-0.8,0.3-2.7,1.3-2.7,1.5c0,0.1,0.1,0.1,0.1,0.1h0.2c0.2-0.2,0.4-0.4,0.6-0.5c0.2-0.1,0.5-0.3,0.7-0.4
			c0.2-0.1,1.2-0.6,1.5-0.7H12H12c0.3,0.1,1.3,0.6,1.5,0.7c0.2,0.1,0.5,0.3,0.7,0.4c0.2,0.2,0.4,0.4,0.6,0.5H15c0,0,0.1,0,0.1-0.1
			C15.2,22.2,14.1,21.5,13.8,21.4z"/>
		<path class="st1" d="M4.6,2.8C4.3,3.1,4,4.4,4.7,5C5.5,4.2,5,3.9,4.6,2.8z"/>
		<path class="st1" d="M3.7,4.1C3.3,4.3,3.1,5.7,3.8,6.3C4.6,5.4,4.1,5.2,3.7,4.1z"/>
		<path class="st1" d="M6,1.7C5.6,1.9,5.1,3.1,5.6,3.8C6.6,3.2,6.1,2.8,6,1.7z"/>
		<path class="st1" d="M7.4,4C6.3,4.3,5.9,3.9,5.6,5C6.4,5.3,7.4,4.5,7.4,4z"/>
		<path class="st1" d="M9.1,19.9c0.3-1.3-1.2-2.7-1.9-2.6C7.7,18.9,7.3,19.6,9.1,19.9z"/>
		<path class="st1" d="M2.9,14.4c-0.2-1.6-0.9-1.3-2.3-1.8C0.5,13.2,1.7,14.6,2.9,14.4z"/>
		<path class="st1" d="M2.3,10.9C2.7,9.5,2,9.6,0.9,8.7C0.7,9.2,1.3,10.7,2.3,10.9z"/>
		<path class="st1" d="M3.2,7.7c0.5-1.1-0.1-1.2-0.9-2.1C2,6,2.3,7.3,3.2,7.7z"/>
		<path class="st1" d="M2.4,12.5c0.1-1.5-0.6-1.3-1.9-2.1C0.4,11.1,1.3,12.6,2.4,12.5z"/>
		<path class="st1" d="M2.6,9.3C3.1,8,2.5,8,1.6,6.9C1.3,7.4,1.6,8.9,2.6,9.3z"/>
	</g>
</g>
</svg>
