<svg xmlns="http://www.w3.org/2000/svg" xml:space="preserve" id="Capa_1" x="0" y="0" style="enable-background:new 0 0 31.9 32" version="1.1" viewBox="0 0 31.9 32"><style>.st0{fill:#ffcb00}</style><path d="M19.7 26.2c2.4-.3 1.8-1.3 2.6-3.4-1.1-.1-3 1.6-2.6 3.4zM22 5.5c0 .5 1.3 1.7 2.5 1.3-.4-1.4-1-1-2.5-1.3zM22.9 24.4c2-.9 1.2-1.6 1.3-3.7-.9.1-2 2.2-1.3 3.7zM25.6 11c-.3.7.7 2.4 1.8 2.4.3-1.6-.5-1.5-1.8-2.4zM23.5 7.2c0 .7 1.2 1.8 2.2 1.6-.3-1.6-.9-1.2-2.2-1.6zM24.9 8.9c-.1.7.9 2.2 2.1 2.2 0-1.6-.7-1.4-2.1-2.2zM6.7 18.1c-.7 1.8-1.4 2.2-.1 3.7 1.2-1 .8-3.2.1-3.7zM6.4 15.5C5.1 17 4.2 17.2 5.1 19c1.5-.5 1.9-2.9 1.3-3.5zM7.1 8.9c-1.4.8-2.1.6-2.1 2.3 1.3 0 2.2-1.6 2.1-2.3zM4.5 13.4c1.2-.1 2.1-1.8 1.8-2.4-1.3.9-2.1.8-1.8 2.4zM4.5 16.4c1.6-.4 2.2-2.6 1.8-3.3-1.4 1.3-2.5 1.3-1.8 3.3zM8.4 7.2c-1.4.4-2 0-2.4 1.6 1.2.3 2.4-1 2.4-1.6zM27.4 10.2c1.2-.4 1.6-2.2 1.2-2.7-1.1 1.2-1.7 1.2-1.2 2.7zM26.7 5.5c-.5 1.4-1.2 1.8-.1 2.9.9-.8.7-2.6.1-2.9zM28.2 12.3c1.3-.4 1.7-2.5 1.3-3-1.2 1.3-2 1.3-1.3 3zM28.6 14.4c1.4-.3 2.2-2.2 2-2.9-1.6 1.2-2.6 1.1-2 2.9zM25.7 13c-.4.8.3 3 1.8 3.3.7-1.9-.2-1.9-1.8-3.3zM28.4 16.5c1.4 0 2.6-2 2.5-2.7-1.7 1-2.6.8-2.5 2.7zM25.3 21.8c1.4-1.4.5-1.8-.1-3.7-.7.5-1.1 2.7.1 3.7zM25.6 3.8c-.5 1.4-1.2 1.7-.1 2.9.8-.8.5-2.5.1-2.9zM26.7 19.1c.9-1.8-.1-2-1.3-3.5-.5.5-.1 2.9 1.3 3.5zM24.3 5.1c.7-.9 0-2.5-.5-2.7-.2 1.4-.9 1.9.5 2.7zM20.2 26.9c.5 1.6 2.9 2.1 3.7 1.7-1.6-1.5-1.6-2.5-3.7-1.7zM7.9 28.4c.8.5 3.1-.1 3.7-1.7-2-.8-2 .3-3.7 1.7zM9.6 25.7c-2-1.2-2.1-.1-4.1.9.7.7 3.3.5 4.1-.9zM6.2 22.5c-1.4-1.6-1.8-.7-3.8-.1.4.7 2.7 1.3 3.8.1zM7.6 24.4c-1.4-1.6-1.8-.7-3.9-.1.5.7 2.9 1.3 3.9.1zM9.1 24.2c.8-1.4-.5-3.5-1.3-3.7.1 2.2-.7 3 1.3 3.7zM25.7 22.5c1 1.2 3.4.7 3.9-.1-2.1-.5-2.5-1.4-3.9.1zM27.8 19c1.6.3 3.1-1.6 3-2.4-1.8.7-2.8.3-3 2.4zM27 20.7c1.3.9 3.4-.1 3.8-.9-2.1-.1-2.8-.9-3.8.9zM22.4 25.8c.8 1.4 3.4 1.6 4.1.9-2-1-2.2-2.1-4.1-.9zM4.9 20.7c-1-1.8-1.7-1-3.8-.9.4.8 2.5 1.8 3.8.9zM24.3 24.4c1 1.2 3.4.7 3.9-.1-2-.6-2.5-1.5-3.9.1z" class="st0"/><path d="M18.4 28.2c-.3-.1-.7-.4-1-.5-.1 0-.5-.3-.8-.3 3.1-.1 5.9-1.6 7.9-3.7 2.2-2.2 3.5-5.4 3.5-8.9 0 3.4-1.3 6.5-3.5 8.8s-5.1 3.7-8.5 3.7-6.3-1.3-8.4-3.5C5.3 21.5 4 18.4 4 15c0 3.5 1.3 6.5 3.5 8.9 2.1 2.1 4.8 3.4 7.9 3.7-1 .4-3.5 1.7-3.5 2 0 .1.1.1.1.1h.3c.3-.3.5-.5.8-.7.3-.1.7-.4.9-.5.3-.1 1.6-.8 2-.9.4.1 1.7.8 2 .9.3.1.7.4.9.5.3.3.5.5.8.7h.3s.1 0 .1-.1c.1-.4-1.3-1.3-1.7-1.4z" class="st0"/><path d="M22.9 4.6c-.1-2-1-1.6-2.7-2.2-.1.8 1.3 2.5 2.6 2.4.5.4 1 .8 1.6 1.3 2.2 2.2 3.5 5.4 3.5 8.8 0-3.5-1.3-6.5-3.5-8.9-.5-.6-.9-1-1.5-1.4zM9.1 4.9c1.3 0 2.6-1.6 2.5-2.4-1.7.7-2.7.3-2.8 2.2-.4.4-.9 1-1.3 1.4C5.3 8.3 4 11.4 4 15c0-3.4 1.3-6.5 3.5-8.8.5-.5 1-.9 1.6-1.3zM6.3 3.8c-.4.4-.8 2.1.1 2.9 1.1-1 .4-1.4-.1-2.9zM5.1 5.5c-.5.3-.7 2.1.2 2.9 1-1.2.4-1.4-.2-2.9z" class="st0"/><path d="M8.2 2.4c-.6.2-1.2 1.8-.6 2.7 1.3-.8.7-1.3.6-2.7zM10 5.4c-1.5.4-2-.1-2.4 1.3 1.1.4 2.4-.6 2.4-1.3zM12.2 26.2c.4-1.7-1.6-3.5-2.5-3.4.7 2.1.2 3 2.5 3.4zM1.1 16.7c-.1.8 1.4 2.6 3 2.4-.3-2.2-1.2-1.8-3-2.4zM3.3 14.4c.5-1.8-.4-1.7-1.8-2.9-.3.7.5 2.7 1.8 2.9zM4.5 10.2c.7-1.4-.1-1.6-1.2-2.7-.4.5 0 2.2 1.2 2.7zM3.4 16.5c.1-2-.8-1.7-2.5-2.7-.1.9 1.1 2.9 2.5 2.7zM3.7 12.3c.7-1.7-.1-1.7-1.3-3.1-.4.6 0 2.6 1.3 3.1zM12.4 11.3s0-.1.1-.3c.1-.5.1-.6.2-.8.1-.1.2-.3.3-.3 0 0 .1 0 .2-.1.1 0 .2-.1.3-.1.2 0 .4-.1.6-.1h5.6c-.1.2-.3.5-.4.7-2.4 4.3-4.4 9.3-5.1 11.6-.1.2-.1.4-.1.6v.2h.1c.4 0 1.5-.7 1.6-1V20.9c.3-2.4 3.5-9.7 5-12 .1-.1.2-.2.2-.3-.1-.1-.2-.1-.4-.1H13.6c-.6-.1-.8-.1-.9-.1v1c0 .2 0 .3-.1.5 0 .2 0 .3-.1.5v.8c-.2 0-.2.1-.1.1z" class="st0"/></svg>